<svg width="455" height="167" viewBox="0 0 455 167" fill="none" xmlns="http://www.w3.org/2000/svg">
<path d="M57.0234 2.02725C49.0014 5.30933 45.0388 14.9625 48.9048 22.2989C51.8044 27.8978 52.6742 27.9943 100.903 27.9943C132.99 27.9943 145.555 28.2839 147.392 29.1527C155.8 32.9174 153.481 47.6868 143.816 52.7064C141.69 53.8648 130.574 54.0579 79.5431 54.0579C40.4962 54.0579 16.6235 54.444 14.3038 55.0232C7.34502 56.9539 2.60914 66.2209 4.73545 73.5573C6.95841 80.7972 5.2187 80.5076 59.4398 81.0868C96.0703 81.4729 108.249 81.859 109.892 82.8243C117.43 87.0718 114.434 101.552 105.059 106.088C101.192 108.019 99.2593 108.116 77.9966 108.116C53.9307 108.116 51.611 108.502 47.1651 112.653C43.6856 115.935 43.0091 118.155 38.7565 141.033L35.0838 160.34L82.056 160.05L129.029 159.663L137.727 157.057C155.027 151.652 165.079 144.122 171.265 131.573C181.8 110.432 178.513 88.7128 163.629 80.9902L158.604 78.3839L164.209 75.0053C171.071 70.7579 179.286 62.1665 181.702 56.7608C184.409 50.6793 185.858 40.2539 185.182 33.1105C183.635 18.0515 176.194 7.91569 163.822 3.76483C157.154 1.54459 156.574 1.44806 108.249 1.255C76.6435 1.15846 58.5699 1.35153 57.0234 2.02725Z" fill="white"/>
<path d="M433.797 95.6965H355.948C353.099 95.6965 350.79 98.0068 350.79 100.857C350.79 103.706 353.099 106.017 355.948 106.017H433.797C436.646 106.017 438.956 103.706 438.956 100.857C438.956 98.0068 436.646 95.6965 433.797 95.6965Z" fill="white"/>
<g filter="url(#filter0_d_3756_48858)">
<path d="M222.88 113.057C222.047 113.057 221.203 113.023 220.348 112.956C219.515 112.911 218.75 112.843 218.052 112.753C217.354 112.686 216.78 112.629 216.33 112.584C215.88 112.517 215.621 112.472 215.553 112.449L215.688 101.675L215.519 89.043C215.609 89.043 215.88 89.0205 216.33 88.9754C216.78 88.9304 217.354 88.8854 218.052 88.8404C218.75 88.7728 219.493 88.7278 220.28 88.7052C221.091 88.6602 221.879 88.6377 222.644 88.6377C223.882 88.6377 224.996 88.8291 225.987 89.2119C226.977 89.5947 227.765 90.2477 228.35 91.1708C228.958 92.0715 229.262 93.3212 229.262 94.9199C229.262 96.1583 229.071 97.1378 228.688 97.8583C228.328 98.5789 227.889 99.1193 227.371 99.4796C226.876 99.8173 226.415 100.042 225.987 100.155C225.582 100.268 225.345 100.324 225.278 100.324L225.48 99.0067V101.675L225.109 100.391C225.379 100.391 225.773 100.459 226.291 100.594C226.831 100.707 227.371 100.943 227.911 101.303C228.452 101.664 228.913 102.204 229.296 102.925C229.679 103.623 229.87 104.557 229.87 105.728C229.87 107.192 229.667 108.407 229.262 109.376C228.879 110.321 228.35 111.064 227.675 111.605C227 112.145 226.246 112.517 225.413 112.719C224.602 112.945 223.758 113.057 222.88 113.057ZM223.252 110.862C224.715 110.862 225.683 110.457 226.156 109.646C226.628 108.835 226.865 107.586 226.865 105.897C226.865 104.208 226.471 103.048 225.683 102.418C224.918 101.788 223.86 101.472 222.509 101.472H217.073L218.356 100.763L218.423 111.774L218.356 110.524C218.468 110.524 218.75 110.558 219.2 110.625C219.65 110.67 220.224 110.727 220.922 110.794C221.62 110.839 222.396 110.862 223.252 110.862ZM222.779 99.2769C224.175 99.2769 225.109 98.9504 225.582 98.2974C226.077 97.6219 226.324 96.5299 226.324 95.0212C226.324 93.4225 226.032 92.3079 225.447 91.6775C224.861 91.047 223.882 90.7318 222.509 90.7318C221.721 90.7318 221.012 90.7543 220.382 90.7993C219.751 90.8443 219.234 90.8894 218.828 90.9344C218.423 90.9795 218.164 91.0132 218.052 91.0357L218.356 89.7185V100.054L217.073 99.2431L222.779 99.2769ZM232.883 112.584L239.265 89.1106H243.25L249.631 112.584H246.727L244.938 105.559L246.356 106.37H236.226L237.577 105.559L235.787 112.584H232.883ZM237.644 105.188L236.699 103.87H245.816L244.87 105.188L241.055 90.3602L242.642 91.6099H239.873L241.46 90.3602L237.644 105.188ZM253.341 112.618L253.442 101.844L253.341 89.1106H256.211L256.076 99.4796L256.211 112.584L253.341 112.618ZM260.294 112.584L267.52 99.4458L267.824 101.168L260.767 89.1106H263.941L269.647 99.6822L267.25 98.6352H270.018L267.857 99.6484L273.631 89.1106H276.805L269.647 101.168L269.85 99.8173L277.312 112.584H273.969L267.992 101.337L269.579 102.452H267.418L269.208 101.337L263.637 112.584H260.294ZM278.026 112.584L284.407 89.1106H288.392L294.773 112.584H291.87L290.08 105.559L291.498 106.37H281.368L282.719 105.559L280.929 112.584H278.026ZM282.787 105.188L281.841 103.87H290.958L290.012 105.188L286.197 90.3602L287.784 91.6099H285.015L286.602 90.3602L282.787 105.188ZM305.135 113.057C304.685 113.057 304.122 113.035 303.447 112.99C302.794 112.967 302.118 112.922 301.421 112.855C300.745 112.81 300.138 112.765 299.597 112.719C299.057 112.674 298.686 112.641 298.483 112.618V89.0768C298.573 89.0768 298.866 89.0543 299.361 89.0092C299.856 88.9642 300.464 88.9192 301.184 88.8741C301.905 88.8066 302.647 88.7503 303.413 88.7052C304.201 88.6602 304.899 88.6377 305.506 88.6377C307.24 88.6377 308.647 88.9642 309.727 89.6172C310.83 90.2476 311.674 91.1258 312.259 92.2517C312.845 93.355 313.25 94.6272 313.475 96.0683C313.7 97.4868 313.813 98.9842 313.813 100.56C313.813 103.668 313.43 106.133 312.665 107.957C311.922 109.781 310.898 111.087 309.592 111.875C308.286 112.663 306.801 113.057 305.135 113.057ZM304.763 110.592C305.979 110.592 306.879 110.513 307.465 110.355C308.05 110.175 308.489 109.939 308.782 109.646C309.097 109.331 309.389 108.835 309.659 108.16C309.952 107.484 310.188 106.516 310.369 105.255C310.549 103.994 310.639 102.35 310.639 100.324C310.639 98.2749 310.492 96.4736 310.2 94.9199C309.93 93.3662 309.479 92.3192 308.849 91.7788C308.624 91.5761 308.264 91.4185 307.769 91.3059C307.296 91.1708 306.564 91.1033 305.574 91.1033C304.673 91.1033 303.807 91.1483 302.974 91.2384C302.141 91.3059 301.421 91.3622 300.813 91.4073L301.319 90.0563V111.537L300.712 110.153C301.364 110.243 302.006 110.344 302.636 110.457C303.267 110.547 303.976 110.592 304.763 110.592ZM316.408 112.584L322.79 89.1106H326.774L333.156 112.584H330.252L328.462 105.559L329.881 106.37H319.751L321.101 105.559L319.312 112.584H316.408ZM321.169 105.188L320.223 103.87H329.34L328.395 105.188L324.579 90.3602L326.166 91.6099H323.397L324.984 90.3602L321.169 105.188Z" fill="white"/>
</g>
<g filter="url(#filter1_d_3756_48858)">
<path d="M215.004 77.8708L215.266 56.4611L215.004 31.8989C215.004 31.8989 215.551 31.8551 216.645 31.7676C217.74 31.68 219.14 31.5706 220.847 31.4392C222.598 31.3079 224.458 31.1984 226.428 31.1108C228.442 31.0233 230.346 30.9795 232.14 30.9795C236.692 30.9795 240.194 32.3148 242.645 34.9856C245.14 37.6564 246.387 41.6406 246.387 46.9383C246.387 50.2658 245.949 53.0241 245.074 55.2133C244.199 57.3586 242.995 59.0442 241.463 60.2702C239.975 61.4961 238.29 62.3717 236.408 62.8971C234.569 63.3787 232.665 63.6195 230.696 63.6195C229.12 63.6195 227.654 63.5757 226.297 63.4882C224.983 63.4007 224.217 63.3569 223.999 63.3569V77.8708H215.004ZM230.958 56.3954C232.14 56.3954 233.103 56.3079 233.847 56.1327C234.591 55.9138 235.139 55.6511 235.488 55.3446C236.058 54.7754 236.452 53.7903 236.67 52.3893C236.889 50.9444 236.998 48.9524 236.998 46.4129C236.998 44.4427 236.911 42.976 236.736 42.0127C236.56 41.0058 236.342 40.3052 236.079 39.9112C235.861 39.5171 235.62 39.2326 235.357 39.0574C235.05 38.7509 234.482 38.5102 233.65 38.335C232.862 38.1598 231.812 38.0723 230.499 38.0723C229.317 38.0723 228.135 38.1161 226.953 38.2037C225.815 38.2912 224.831 38.4007 223.999 38.532V55.8043C224.174 55.8481 224.939 55.9575 226.297 56.1327C227.654 56.3079 229.207 56.3954 230.958 56.3954ZM271.819 78.7246C269.236 78.7246 266.807 78.3744 264.532 77.6738C262.255 76.9733 260.242 75.7693 258.491 74.0617C256.74 72.3104 255.361 69.8805 254.355 66.7719C253.392 63.6195 252.911 59.6134 252.911 54.7535C252.911 49.8937 253.392 45.9313 254.355 42.8665C255.361 39.758 256.74 37.3499 258.491 35.6424C260.242 33.891 262.255 32.687 264.532 32.0303C266.807 31.3297 269.236 30.9795 271.819 30.9795C274.402 30.9795 276.831 31.3297 279.107 32.0303C281.383 32.687 283.396 33.891 285.148 35.6424C286.898 37.3499 288.255 39.758 289.218 42.8665C290.225 45.9313 290.728 49.8937 290.728 54.7535C290.728 59.6134 290.225 63.6195 289.218 66.7719C288.255 69.8805 286.898 72.3104 285.148 74.0617C283.396 75.7693 281.383 76.9733 279.107 77.6738C276.875 78.3744 274.446 78.7246 271.819 78.7246ZM271.819 70.778C273.482 70.778 274.905 70.6029 276.087 70.2526C277.269 69.8586 278.254 69.1143 279.042 68.0197C279.83 66.9251 280.398 65.3271 280.749 63.2255C281.143 61.0801 281.34 58.2999 281.34 54.8849C281.34 51.4698 281.164 48.7115 280.814 46.6099C280.464 44.4646 279.895 42.8447 279.107 41.7501C278.319 40.6555 277.312 39.9112 276.087 39.5171C274.905 39.1231 273.482 38.9261 271.819 38.9261C270.112 38.9261 268.645 39.1231 267.421 39.5171C266.239 39.9112 265.254 40.6555 264.466 41.7501C263.721 42.8447 263.174 44.4646 262.825 46.6099C262.474 48.7115 262.299 51.4698 262.299 54.8849C262.299 58.3438 262.474 61.1239 262.825 63.2255C263.219 65.3271 263.787 66.9251 264.532 68.0197C265.32 69.1143 266.304 69.8586 267.486 70.2526C268.711 70.6029 270.156 70.778 271.819 70.778ZM300.279 77.8708L300.542 56.3954L300.345 31.8989C300.652 31.8551 301.417 31.7894 302.643 31.7019C303.869 31.6144 305.313 31.5267 306.976 31.4392C308.683 31.3079 310.412 31.1984 312.163 31.1108C313.957 31.0233 315.556 30.9795 316.956 30.9795C320.37 30.9795 323.303 31.483 325.754 32.49C328.249 33.4533 330.174 35.0294 331.532 37.2185C332.889 39.4076 333.567 42.3411 333.567 46.0189C333.567 49.6966 332.757 52.6738 331.138 54.9506C329.562 57.2273 327.22 58.8253 324.112 59.7448V60.0731L334.223 77.8708H324.178L315.774 60.9926L309.274 60.7956V77.8708H300.279ZM317.284 53.7684C320.129 53.7684 321.99 53.1555 322.865 51.9295C323.74 50.6599 324.178 48.7115 324.178 46.0845C324.178 43.7641 324.003 42.0784 323.653 41.0276C323.303 39.9769 322.843 39.2763 322.274 38.9261C321.88 38.6634 321.245 38.4663 320.37 38.335C319.538 38.1598 318.532 38.0723 317.35 38.0723C315.599 38.0723 314.067 38.138 312.754 38.2693C311.485 38.3569 310.346 38.4663 309.34 38.5977L309.274 53.243C310.631 53.3744 311.988 53.5057 313.345 53.6371C314.745 53.7246 316.058 53.7684 317.284 53.7684ZM350.177 77.8708L350.374 39.3858L337.505 39.5828V31.8333H372.04V39.5828L358.975 39.3858L359.172 77.8708H350.177ZM368.865 77.8708L381.471 31.8333H393.355L405.961 77.8708H396.638L393.158 63.4225L398.016 67.1003H376.81L381.668 63.4225L378.123 77.8708H368.865ZM381.603 63.4225L378.517 59.4821H396.309L393.224 63.4225L386.658 36.2334L391.648 40.1082H383.178L388.168 36.2334L381.603 63.4225ZM411.587 77.8708V31.8333H420.581L420.187 74.3244L416.248 69.8586L437.586 69.6616V77.8708H411.587Z" fill="white"/>
</g>
<defs>
<filter id="filter0_d_3756_48858" x="210.519" y="87.6377" width="127.636" height="34.4194" filterUnits="userSpaceOnUse" color-interpolation-filters="sRGB">
<feFlood flood-opacity="0" result="BackgroundImageFix"/>
<feColorMatrix in="SourceAlpha" type="matrix" values="0 0 0 0 0 0 0 0 0 0 0 0 0 0 0 0 0 0 127 0" result="hardAlpha"/>
<feOffset dy="4"/>
<feGaussianBlur stdDeviation="2.5"/>
<feComposite in2="hardAlpha" operator="out"/>
<feColorMatrix type="matrix" values="0 0 0 0 0 0 0 0 0 0 0 0 0 0 0 0 0 0 0.1 0"/>
<feBlend mode="normal" in2="BackgroundImageFix" result="effect1_dropShadow_3756_48858"/>
<feBlend mode="normal" in="SourceGraphic" in2="effect1_dropShadow_3756_48858" result="shape"/>
</filter>
<filter id="filter1_d_3756_48858" x="210.004" y="29.9795" width="232.583" height="57.7451" filterUnits="userSpaceOnUse" color-interpolation-filters="sRGB">
<feFlood flood-opacity="0" result="BackgroundImageFix"/>
<feColorMatrix in="SourceAlpha" type="matrix" values="0 0 0 0 0 0 0 0 0 0 0 0 0 0 0 0 0 0 127 0" result="hardAlpha"/>
<feOffset dy="4"/>
<feGaussianBlur stdDeviation="2.5"/>
<feComposite in2="hardAlpha" operator="out"/>
<feColorMatrix type="matrix" values="0 0 0 0 0 0 0 0 0 0 0 0 0 0 0 0 0 0 0.1 0"/>
<feBlend mode="normal" in2="BackgroundImageFix" result="effect1_dropShadow_3756_48858"/>
<feBlend mode="normal" in="SourceGraphic" in2="effect1_dropShadow_3756_48858" result="shape"/>
</filter>
</defs>
</svg>
