<?xml version="1.0" encoding="UTF-8"?>
<svg version="1.1" id="Layer_1" xmlns="http://www.w3.org/2000/svg" xmlns:xlink="http://www.w3.org/1999/xlink" x="0px" y="0px" viewBox="0 0 32 32" style="enable-background:new 0 0 32 32;" xml:space="preserve">&#13;&#10;<style type="text/css" xml:space="preserve">.Blue{fill:#1177D7;}&#13;&#10;&#9;.Black{fill:#727272;}&#13;&#10;&#9;.st0{opacity:0.3;}</style>
<rect x="14" y="16" class="Black" width="10" height="2"/>
<rect x="14" y="20" class="Black" width="10" height="2"/>
<rect x="14" y="24" class="Black" width="10" height="2"/>
<rect x="14" y="12" class="Black" width="10" height="2"/>
<g class="st0">
		<rect x="26" y="12" class="Blue" width="2" height="14"/>
	</g>
<rect x="26" y="12" class="Blue" width="2" height="8"/>
<path class="Blue" d="M31,2H1C0.4,2,0,2.4,0,3v26c0,0.6,0.4,1,1,1h30c0.6,0,1-0.4,1-1V3C32,2.4,31.6,2,31,2z M22,4c1.1,0,2,0.9,2,2  &#9;c0,1.1-0.9,2-2,2s-2-0.9-2-2C20,4.9,20.9,4,22,4z M30,28H16h-2h-2H8H2V10h6h4h2h2h14V28z M28,8c-1.1,0-2-0.9-2-2c0-1.1,0.9-2,2-2  &#9;s2,0.9,2,2C30,7.1,29.1,8,28,8z"/>
<rect x="4" y="12" class="Black" width="8" height="14"/>
</svg>
