<svg xmlns="http://www.w3.org/2000/svg" version="1.0" width="79.000000pt" height="106.000000pt" viewBox="0 0 79.000000 106.000000" preserveAspectRatio="xMidYMid meet">
<g transform="translate(0.000000,106.000000) scale(0.100000,-0.100000)" fill="#000000" stroke="none">
<path d="M230 1020 c0 -39 -1 -40 -35 -40 l-35 0 0 -225 0 -225 35 0 c33 0 35 -2 35 -35 l0 -35 55 0 55 0 0 -230 0 -230 40 0 40 0 0 230 0 230 55 0 55 0 0 35 c0 33 2 35 35 35 l35 0 0 225 0 225 -35 0 c-34 0 -35 1 -35 40 l0 40 -150 0 -150 0 0 -40z"/>
</g>

  <!-- Retângulo 2: baseado nas dimensões do viewBox (79x106) -->
  <!-- 30% da largura = 23.7, 45% da altura = 47.7 -->
  <rect x="30%" y="5%" width="35%" height="45%" fill="#ffb335"/>

</svg>