<?xml version="1.0" encoding="UTF-8"?>
<svg id="Layer_4" xmlns="http://www.w3.org/2000/svg" viewBox="0 0 32 32">
	<defs>
		<style>.Red{fill:#d11c1c;}.Red,.Black,.Green,.White{stroke-width:0px;}.Black{fill:#727272;}.Green{fill:#039c23;}.White{fill:#fff;}</style>
	</defs>
	<path class="White" d="M24.67,27.28c-.52,0-1.03-.13-1.48-.39l-4.75-2.67c-.75-.42-1.59-.64-2.45-.64s-1.7.22-2.45.64l-4.75,2.67c-.45.25-.96.38-1.47.38h0c-.82,0-1.62-.34-2.19-.94-2.67-2.8-4.15-6.47-4.15-10.34C1,7.73,7.73,1,16,1c.24,0,.48,0,.73.02,7.81.37,14.08,6.78,14.27,14.6.1,4.02-1.38,7.84-4.16,10.74-.56.59-1.35.92-2.16.92Z"/>
	<path class="Black" d="M16,2c.23,0,.45,0,.68.02,7.17.34,13.14,6.45,13.32,13.63.09,3.75-1.29,7.31-3.88,10.02-.38.4-.89.61-1.44.61-.34,0-.68-.09-.99-.26l-4.75-2.67c-.9-.5-1.91-.77-2.94-.77s-2.04.27-2.94.77l-4.75,2.67c-.3.17-.64.26-.98.26-.55,0-1.09-.23-1.47-.63-2.5-2.61-3.87-6.04-3.87-9.65C2,8.28,8.28,2,16,2M16,0C7.16,0,0,7.16,0,16,0,20.28,1.68,24.16,4.42,27.03c.78.82,1.84,1.25,2.91,1.25.67,0,1.34-.17,1.96-.51l4.75-2.67c.61-.34,1.28-.51,1.96-.51s1.35.17,1.96.51l4.75,2.67c.62.35,1.29.51,1.96.51,1.06,0,2.11-.42,2.89-1.23,2.84-2.96,4.55-7.01,4.44-11.46C31.79,7.31,25.05.41,16.77.02,16.52,0,16.26,0,16,0h0Z"/>
	<path class="Red" d="M25.3,21.65c-.24,0-.49-.04-.73-.14-1.03-.4-1.53-1.56-1.13-2.59.37-.94.56-1.93.56-2.92,0-.91-.16-1.82-.49-2.71-.38-1.04.16-2.19,1.2-2.56,1.04-.37,2.19.16,2.56,1.2.48,1.33.73,2.7.73,4.07,0,1.5-.28,2.97-.84,4.38-.31.79-1.06,1.27-1.86,1.27Z"/>
	<path class="Green" d="M6.7,21.65c-.8,0-1.55-.48-1.86-1.27-.56-1.41-.84-2.89-.84-4.38,0-6.62,5.38-12,12-12,1.37,0,2.74.24,4.07.73,1.04.38,1.58,1.52,1.2,2.56-.38,1.04-1.52,1.58-2.56,1.2-.89-.32-1.81-.49-2.71-.49-4.41,0-8,3.59-8,8,0,.99.19,1.98.56,2.92.4,1.03-.1,2.19-1.13,2.59-.24.09-.49.14-.73.14Z"/>
	<path class="Black" d="M24.71,7.29c-.39-.39-1.02-.39-1.41,0l-5.27,5.27c-.59-.35-1.28-.57-2.02-.57-2.21,0-4,1.79-4,4s1.79,4,4,4,4-1.79,4-4c0-.74-.21-1.43-.57-2.02l5.27-5.27c.39-.39.39-1.02,0-1.41ZM16,18c-1.1,0-2-.9-2-2s.9-2,2-2,2,.9,2,2-.9,2-2,2Z"/>
</svg>
