<svg width="16" height="16" viewBox="0 0 16 16" fill="none" xmlns="http://www.w3.org/2000/svg">
<path d="M9.99967 15.1663H5.99967C2.37967 15.1663 0.833008 13.6197 0.833008 9.99967V5.99967C0.833008 2.37967 2.37967 0.833008 5.99967 0.833008H9.33301C9.60634 0.833008 9.83301 1.05967 9.83301 1.33301C9.83301 1.60634 9.60634 1.83301 9.33301 1.83301H5.99967C2.92634 1.83301 1.83301 2.92634 1.83301 5.99967V9.99967C1.83301 13.073 2.92634 14.1663 5.99967 14.1663H9.99967C13.073 14.1663 14.1663 13.073 14.1663 9.99967V6.66634C14.1663 6.39301 14.393 6.16634 14.6663 6.16634C14.9397 6.16634 15.1663 6.39301 15.1663 6.66634V9.99967C15.1663 13.6197 13.6197 15.1663 9.99967 15.1663Z" fill="#212121"/>
<path d="M14.6663 7.16633H11.9997C9.71967 7.16633 8.83301 6.27967 8.83301 3.99967V1.333C8.83301 1.133 8.95301 0.946334 9.13967 0.873C9.32634 0.793 9.53967 0.839667 9.68634 0.979667L15.0197 6.313C15.1597 6.453 15.2063 6.673 15.1263 6.85967C15.0463 7.04633 14.8663 7.16633 14.6663 7.16633ZM9.83301 2.53967V3.99967C9.83301 5.71967 10.2797 6.16633 11.9997 6.16633H13.4597L9.83301 2.53967Z" fill="#212121"/>
<path d="M8.66699 9.16699H4.66699C4.39366 9.16699 4.16699 8.94033 4.16699 8.66699C4.16699 8.39366 4.39366 8.16699 4.66699 8.16699H8.66699C8.94033 8.16699 9.16699 8.39366 9.16699 8.66699C9.16699 8.94033 8.94033 9.16699 8.66699 9.16699Z" fill="#212121"/>
<path d="M7.33366 11.833H4.66699C4.39366 11.833 4.16699 11.6063 4.16699 11.333C4.16699 11.0597 4.39366 10.833 4.66699 10.833H7.33366C7.60699 10.833 7.83366 11.0597 7.83366 11.333C7.83366 11.6063 7.60699 11.833 7.33366 11.833Z" fill="#212121"/>
</svg>
