<svg width="18" height="14" viewBox="0 0 18 14" fill="none" xmlns="http://www.w3.org/2000/svg">
    <path
        d="M9.00044 4C8.28965 4.00524 7.60931 4.32299 7.10669 4.88447C6.60408 5.44595 6.31963 6.20597 6.31494 7C6.31494 8.642 7.53058 10 9.00044 10C10.4694 10 11.6859 8.642 11.6859 7C11.6859 5.359 10.4694 4 9.00044 4Z"
        fill="#4D4D4D" />
    <path
        d="M9 0C2.1672 0 0.113686 6.617 0.0948876 6.684L0 7L0.0939925 7.316C0.113686 7.383 2.1672 14 9 14C15.8328 14 17.8863 7.383 17.9051 7.316L18 7L17.906 6.684C17.8863 6.617 15.8328 0 9 0ZM9 12C4.20997 12 2.35429 8.154 1.90491 7C2.35608 5.842 4.21265 2 9 2C13.79 2 15.6457 5.846 16.0951 7C15.6439 8.158 13.7873 12 9 12Z"
        fill="#4D4D4D" />
</svg>
    