<svg width="20" height="21" viewBox="0 0 20 21" fill="none" xmlns="http://www.w3.org/2000/svg">
<path d="M9.8237 10.3999C9.3737 10.3999 8.91536 10.3166 8.55703 10.1583L3.64036 7.97492C2.39036 7.41659 2.20703 6.66658 2.20703 6.25825C2.20703 5.84992 2.39036 5.09992 3.64036 4.54159L8.55703 2.35825C9.28203 2.03325 10.3737 2.03325 11.0987 2.35825L16.0237 4.54159C17.2654 5.09159 17.457 5.84992 17.457 6.25825C17.457 6.66658 17.2737 7.41659 16.0237 7.97492L11.0987 10.1583C10.732 10.3249 10.282 10.3999 9.8237 10.3999ZM9.8237 3.36659C9.54036 3.36659 9.26536 3.40825 9.06536 3.49992L4.1487 5.68325C3.64036 5.91658 3.45703 6.14992 3.45703 6.25825C3.45703 6.36659 3.64036 6.60825 4.14036 6.83325L9.05703 9.01659C9.45703 9.19159 10.182 9.19159 10.582 9.01659L15.507 6.83325C16.0154 6.60825 16.1987 6.36659 16.1987 6.25825C16.1987 6.14992 16.0154 5.90825 15.507 5.68325L10.5904 3.49992C10.3904 3.41659 10.107 3.36659 9.8237 3.36659Z" fill="#3B5E88"/>
<path d="M10 14.7417C9.68333 14.7417 9.36667 14.6751 9.06667 14.5417L3.40833 12.0251C2.55 11.6501 1.875 10.6084 1.875 9.66675C1.875 9.32508 2.15833 9.04175 2.5 9.04175C2.84167 9.04175 3.125 9.32508 3.125 9.66675C3.125 10.1251 3.5 10.7001 3.91667 10.8917L9.575 13.4084C9.84167 13.5251 10.15 13.5251 10.425 13.4084L16.0833 10.8917C16.5 10.7084 16.875 10.1251 16.875 9.66675C16.875 9.32508 17.1583 9.04175 17.5 9.04175C17.8417 9.04175 18.125 9.32508 18.125 9.66675C18.125 10.6084 17.45 11.6501 16.5917 12.0334L10.9333 14.5501C10.6333 14.6751 10.3167 14.7417 10 14.7417Z" fill="#3B5E88"/>
<path d="M10 18.9083C9.68333 18.9083 9.36667 18.8416 9.06667 18.7083L3.40833 16.1916C2.475 15.775 1.875 14.85 1.875 13.825C1.875 13.4833 2.15833 13.2 2.5 13.2C2.84167 13.2 3.125 13.4916 3.125 13.8333C3.125 14.3583 3.43333 14.8416 3.91667 15.0583L9.575 17.575C9.84167 17.6916 10.15 17.6916 10.425 17.575L16.0833 15.0583C16.5667 14.8416 16.875 14.3666 16.875 13.8333C16.875 13.4916 17.1583 13.2083 17.5 13.2083C17.8417 13.2083 18.125 13.4916 18.125 13.8333C18.125 14.8583 17.525 15.7833 16.5917 16.2L10.9333 18.7166C10.6333 18.8416 10.3167 18.9083 10 18.9083Z" fill="#3B5E88"/>
</svg>
