<svg width="23" height="23" viewBox="0 0 23 23" fill="none" xmlns="http://www.w3.org/2000/svg">
<path d="M6.15364 18.3399C5.56905 18.3399 5.0228 18.1386 4.62989 17.7649C4.13155 17.2953 3.89197 16.5861 3.97822 15.8195L4.3328 12.7145C4.39989 12.1299 4.75447 11.3536 5.16655 10.932L13.0345 2.60404C14.9991 0.524455 17.0499 0.466956 19.1295 2.43154C21.2091 4.39612 21.2666 6.44696 19.302 8.52654L11.4341 16.8545C11.0316 17.2857 10.2841 17.6882 9.69947 17.784L6.61364 18.3111C6.45072 18.3207 6.30697 18.3399 6.15364 18.3399ZM16.1107 2.42196C15.3728 2.42196 14.7307 2.88196 14.0791 3.57196L6.21114 11.9095C6.01947 12.1107 5.79905 12.5899 5.76072 12.8678L5.40614 15.9728C5.3678 16.289 5.44447 16.5478 5.61697 16.7107C5.78947 16.8736 6.04822 16.9311 6.36447 16.8832L9.4503 16.3561C9.72822 16.3082 10.1882 16.059 10.3799 15.8578L18.2478 7.52987C19.4361 6.26487 19.8674 5.09571 18.1328 3.46654C17.3661 2.72862 16.7049 2.42196 16.1107 2.42196Z" fill="#4D4D4D"/>
<path d="M17.4615 10.1269C17.4423 10.1269 17.4136 10.1269 17.3944 10.1269C14.4044 9.82986 11.999 7.55861 11.539 4.58778C11.4815 4.19486 11.7498 3.8307 12.1428 3.76361C12.5357 3.70611 12.8998 3.97445 12.9669 4.36736C13.3311 6.68653 15.2094 8.46903 17.5478 8.69903C17.9407 8.73736 18.2282 9.09195 18.1898 9.48486C18.1419 9.84903 17.8257 10.1269 17.4615 10.1269Z" fill="#4D4D4D"/>
<path d="M12.6154 21H3.38462C3.17436 21 3 20.7733 3 20.5C3 20.2267 3.17436 20 3.38462 20H12.6154C12.8256 20 13 20.2267 13 20.5C13 20.7733 12.8256 21 12.6154 21Z" fill="#4D4D4D"/>
</svg>
