<svg width="24" height="23" viewBox="0 0 24 23" fill="none" xmlns="http://www.w3.org/2000/svg">
    <g opacity="0.5">
        <path
            d="M6.15559 18.3399C5.57101 18.3399 5.02476 18.1386 4.63184 17.7649C4.13351 17.2953 3.89392 16.5861 3.98017 15.8195L4.33476 12.7145C4.40184 12.1299 4.75642 11.3536 5.16851 10.932L13.0364 2.60404C15.001 0.524455 17.0518 0.466956 19.1314 2.43154C21.211 4.39612 21.2685 6.44696 19.3039 8.52654L11.436 16.8545C11.0335 17.2857 10.286 17.6882 9.70142 17.784L6.61559 18.3111C6.45267 18.3207 6.30892 18.3399 6.15559 18.3399ZM16.1127 2.42196C15.3748 2.42196 14.7327 2.88196 14.081 3.57196L6.21309 11.9095C6.02142 12.1107 5.80101 12.5899 5.76267 12.8678L5.40809 15.9728C5.36976 16.289 5.44642 16.5478 5.61892 16.7107C5.79142 16.8736 6.05017 16.9311 6.36642 16.8832L9.45226 16.3561C9.73017 16.3082 10.1902 16.059 10.3818 15.8578L18.2498 7.52987C19.4381 6.26487 19.8693 5.09571 18.1348 3.46654C17.3681 2.72862 16.7068 2.42196 16.1127 2.42196Z"
            fill="#212121" />
        <path
            d="M17.4635 10.1269C17.4443 10.1269 17.4155 10.1269 17.3964 10.1269C14.4064 9.82986 12.001 7.55861 11.541 4.58778C11.4835 4.19486 11.7518 3.8307 12.1447 3.76361C12.5376 3.70611 12.9018 3.97445 12.9689 4.36736C13.333 6.68653 15.2114 8.46903 17.5497 8.69903C17.9426 8.73736 18.2301 9.09195 18.1918 9.48486C18.1439 9.84903 17.8276 10.1269 17.4635 10.1269Z"
            fill="#212121" />
        <path
            d="M12.6173 21H3.38657C3.17631 21 3.00195 20.7733 3.00195 20.5C3.00195 20.2267 3.17631 20 3.38657 20H12.6173C12.8276 20 13.002 20.2267 13.002 20.5C13.002 20.7733 12.8276 21 12.6173 21Z"
            fill="#212121" />
    </g>
</svg>
    