<svg width="17" height="16" viewBox="0 0 17 16" fill="none" xmlns="http://www.w3.org/2000/svg">
<path d="M7.74904 15.1C7.40904 15.1 7.07612 15.02 6.76445 14.86C6.14112 14.5333 5.7657 13.94 5.7657 13.2733V9.74C5.7657 9.40667 5.53195 8.90667 5.31237 8.65333L2.6632 6.01334C2.21695 5.59334 1.87695 4.87334 1.87695 4.33333V2.8C1.87695 1.73333 2.73404 0.900002 3.82487 0.900002H13.1749C14.2515 0.900002 15.1228 1.72 15.1228 2.73333V4.2C15.1228 4.9 14.6765 5.69334 14.2586 6.08667L11.1915 8.64C10.894 8.87333 10.6603 9.38667 10.6603 9.8V12.6667C10.6603 13.26 10.2636 13.9467 9.76779 14.2267L8.79029 14.82C8.47154 15.0067 8.11029 15.1 7.74904 15.1ZM3.82487 1.9C3.32904 1.9 2.93945 2.29333 2.93945 2.8V4.33333C2.93945 4.58 3.15195 5.06 3.42112 5.31333L6.11987 7.98667C6.48112 8.40667 6.83529 9.10667 6.83529 9.73334V13.2667C6.83529 13.7 7.15404 13.9133 7.28862 13.98C7.58612 14.1333 7.94737 14.1333 8.22362 13.9733L9.2082 13.38C9.40654 13.2667 9.60487 12.9067 9.60487 12.6667V9.8C9.60487 9.08667 9.9732 8.3 10.5045 7.88L13.5361 5.35333C13.777 5.12667 14.0674 4.58667 14.0674 4.19334V2.73333C14.0674 2.27333 13.6707 1.9 13.182 1.9H3.82487Z" fill="#F5F7FA"/>
<path d="M4.24961 7.16667C4.15044 7.16667 4.05836 7.14 3.96628 7.09334C3.71836 6.94667 3.64044 6.63334 3.79628 6.4L7.28836 1.13334C7.44419 0.900003 7.77003 0.826669 8.01794 0.973336C8.26586 1.12 8.34378 1.42667 8.18794 1.66L4.69586 6.92667C4.59669 7.08 4.42669 7.16667 4.24961 7.16667Z" fill="#F5F7FA"/>
</svg>
