<svg width="17" height="16" viewBox="0 0 17 16" fill="none" xmlns="http://www.w3.org/2000/svg">
<g id="vuesax/outline/filter">
<g id="vuesax/outline/filter_2">
<g id="filter">
<path id="Vector" d="M8.28838 15.1004C7.96838 15.1004 7.65505 15.0204 7.36172 14.8604C6.77505 14.5337 6.42172 13.9404 6.42172 13.2737V9.74039C6.42172 9.40706 6.20172 8.90706 5.99505 8.65372L3.50172 6.01372C3.08172 5.59372 2.76172 4.87372 2.76172 4.33372V2.80039C2.76172 1.73372 3.56839 0.900391 4.59505 0.900391H13.3951C14.4084 0.900391 15.2284 1.72039 15.2284 2.73372V4.20039C15.2284 4.90039 14.8084 5.69372 14.4151 6.08706L11.5284 8.64039C11.2484 8.87372 11.0284 9.38706 11.0284 9.80039V12.6671C11.0284 13.2604 10.6551 13.9471 10.1884 14.2271L9.26839 14.8204C8.96839 15.0071 8.62839 15.1004 8.28838 15.1004ZM4.59505 1.90039C4.12839 1.90039 3.76172 2.29372 3.76172 2.80039V4.33372C3.76172 4.58039 3.96172 5.06039 4.21505 5.31372L6.75505 7.98706C7.09505 8.40706 7.42839 9.10706 7.42839 9.73372V13.2671C7.42839 13.7004 7.72839 13.9137 7.85505 13.9804C8.13505 14.1337 8.47505 14.1337 8.73505 13.9737L9.66172 13.3804C9.84839 13.2671 10.0351 12.9071 10.0351 12.6671V9.80039C10.0351 9.08706 10.3817 8.30039 10.8817 7.88039L13.7351 5.35372C13.9617 5.12706 14.2351 4.58706 14.2351 4.19372V2.73372C14.2351 2.27372 13.8617 1.90039 13.4017 1.90039H4.59505Z" fill="#212121"/>
<path id="Vector_2" d="M4.99458 7.16749C4.90124 7.16749 4.81458 7.14083 4.72791 7.09416C4.49458 6.94749 4.42124 6.63416 4.56791 6.40083L7.85458 1.13416C8.00124 0.900827 8.30791 0.827493 8.54124 0.97416C8.77458 1.12083 8.84791 1.42749 8.70124 1.66083L5.41458 6.92749C5.32124 7.08083 5.16124 7.16749 4.99458 7.16749Z" fill="#212121"/>
</g>
</g>
</g>
</svg>
