<svg width="17" height="16" viewBox="0 0 17 16" fill="none" xmlns="http://www.w3.org/2000/svg">
<path d="M5.66846 9.09774V11.7644C5.66846 12.0377 5.44179 12.2644 5.16846 12.2644C4.89512 12.2644 4.66846 12.0377 4.66846 11.7644V9.09774C4.66846 8.8244 4.89512 8.59774 5.16846 8.59774C5.44179 8.59774 5.66846 8.8244 5.66846 9.09774Z" fill="#3B5E88"/>
<path d="M7.70215 6.49992L7.70215 11.8333C7.70215 12.1066 7.47548 12.3333 7.20215 12.3333C6.92882 12.3333 6.70215 12.1066 6.70215 11.8333L6.70215 6.49992C6.70215 6.22659 6.92882 5.99992 7.20215 5.99992C7.47548 5.99992 7.70215 6.22659 7.70215 6.49992Z" fill="#3B5E88"/>
<path d="M9.70215 5.16667V10.5C9.70215 10.7733 9.47548 11 9.20215 11C8.92882 11 8.70215 10.7733 8.70215 10.5V5.16667C8.70215 4.89333 8.92882 4.66667 9.20215 4.66667C9.47548 4.66667 9.70215 4.89333 9.70215 5.16667Z" fill="#3B5E88"/>
<path d="M11.7021 3.16667V8.5C11.7021 8.77333 11.4755 9 11.2021 9C10.9288 9 10.7021 8.77333 10.7021 8.5V3.16667C10.7021 2.89333 10.9288 2.66667 11.2021 2.66667C11.4755 2.66667 11.7021 2.89333 11.7021 3.16667Z" fill="#3B5E88"/>
<path d="M9.70215 6.49992V11.8333C9.70215 12.1066 9.47548 12.3333 9.20215 12.3333C8.92882 12.3333 8.70215 12.1066 8.70215 11.8333V6.49992C8.70215 6.22659 8.92882 5.99992 9.20215 5.99992C9.47548 5.99992 9.70215 6.22659 9.70215 6.49992Z" fill="#3B5E88"/>
<path d="M11.7021 6.49992V11.8333C11.7021 12.1066 11.4755 12.3333 11.2021 12.3333C10.9288 12.3333 10.7021 12.1066 10.7021 11.8333V6.49992C10.7021 6.22659 10.9288 5.99992 11.2021 5.99992C11.4755 5.99992 11.7021 6.22659 11.7021 6.49992Z" fill="#3B5E88"/>
<path d="M9.9821 15.1666H5.9821C2.3621 15.1666 0.81543 13.6199 0.81543 9.99992V5.99992C0.81543 2.37992 2.3621 0.833252 5.9821 0.833252H7.31543C7.58876 0.833252 7.81543 1.05992 7.81543 1.33325C7.81543 1.60659 7.58876 1.83325 7.31543 1.83325H5.9821C2.90876 1.83325 1.81543 2.92659 1.81543 5.99992V9.99992C1.81543 13.0733 2.90876 14.1666 5.9821 14.1666H9.9821C13.0554 14.1666 14.1488 13.0733 14.1488 9.99992V8.66659C14.1488 8.39325 14.3754 8.16659 14.6488 8.16659C14.9221 8.16659 15.1488 8.39325 15.1488 8.66659V9.99992C15.1488 13.6199 13.6088 15.1666 9.9821 15.1666Z" fill="#3B5E88"/>
</svg>
