<svg width="20" height="20" viewBox="0 0 20 20" fill="none" xmlns="http://www.w3.org/2000/svg">
<path d="M13.3307 10.625H6.66406C6.3224 10.625 6.03906 10.3417 6.03906 10C6.03906 9.65833 6.3224 9.375 6.66406 9.375H13.3307C13.6724 9.375 13.9557 9.65833 13.9557 10C13.9557 10.3417 13.6724 10.625 13.3307 10.625Z" fill="#F5F7FA"/>
<path d="M10 13.9587C9.65833 13.9587 9.375 13.6753 9.375 13.3337V6.66699C9.375 6.32533 9.65833 6.04199 10 6.04199C10.3417 6.04199 10.625 6.32533 10.625 6.66699V13.3337C10.625 13.6753 10.3417 13.9587 10 13.9587Z" fill="#F5F7FA"/>
<path d="M12.4974 18.9587H7.4974C2.9724 18.9587 1.03906 17.0253 1.03906 12.5003V7.50033C1.03906 2.97533 2.9724 1.04199 7.4974 1.04199H12.4974C17.0224 1.04199 18.9557 2.97533 18.9557 7.50033V12.5003C18.9557 17.0253 17.0224 18.9587 12.4974 18.9587ZM7.4974 2.29199C3.65573 2.29199 2.28906 3.65866 2.28906 7.50033V12.5003C2.28906 16.342 3.65573 17.7087 7.4974 17.7087H12.4974C16.3391 17.7087 17.7057 16.342 17.7057 12.5003V7.50033C17.7057 3.65866 16.3391 2.29199 12.4974 2.29199H7.4974Z" fill="#F5F7FA"/>
</svg>
