<svg width="25" height="24" viewBox="0 0 25 24" fill="none" xmlns="http://www.w3.org/2000/svg">
<path d="M9.5625 18.75C9.1525 18.75 8.8125 18.41 8.8125 18V13C8.8125 12.59 9.1525 12.25 9.5625 12.25C9.9725 12.25 10.3125 12.59 10.3125 13V18C10.3125 18.41 9.9725 18.75 9.5625 18.75Z" fill="#3B5E88"/>
<path d="M12.002 16.25H7.00195C6.59195 16.25 6.25195 15.91 6.25195 15.5C6.25195 15.09 6.59195 14.75 7.00195 14.75H12.002C12.412 14.75 12.752 15.09 12.752 15.5C12.752 15.91 12.412 16.25 12.002 16.25Z" fill="#3B5E88"/>
<path d="M8.00195 5.75C7.59195 5.75 7.25195 5.41 7.25195 5V2C7.25195 1.59 7.59195 1.25 8.00195 1.25C8.41195 1.25 8.75195 1.59 8.75195 2V5C8.75195 5.41 8.41195 5.75 8.00195 5.75Z" fill="#3B5E88"/>
<path d="M16.002 5.75C15.592 5.75 15.252 5.41 15.252 5V2C15.252 1.59 15.592 1.25 16.002 1.25C16.412 1.25 16.752 1.59 16.752 2V5C16.752 5.41 16.412 5.75 16.002 5.75Z" fill="#3B5E88"/>
<path d="M8.85197 22.8101C6.38197 22.8101 4.75197 22.2701 3.73197 21.1101C2.55197 19.7801 2.36197 17.7901 2.32197 16.0201L2.19197 9.85005C2.09197 5.12005 3.66197 3.15005 7.76197 2.84005L15.802 2.68005C15.822 2.68005 15.832 2.68005 15.842 2.68005C19.952 2.82005 21.592 4.72005 21.692 9.46005L21.812 15.6301C21.852 17.4001 21.732 19.4001 20.612 20.7701C19.592 22.0201 17.872 22.6301 15.202 22.6901L9.20197 22.8101C9.08197 22.8101 8.96197 22.8101 8.85197 22.8101ZM15.802 4.17005L7.83197 4.33005C5.03197 4.55005 3.60197 5.45005 3.69197 9.82005L3.82197 15.9901C3.86197 18.1101 4.17197 19.3501 4.85197 20.1201C5.61197 20.9801 6.98197 21.3601 9.18197 21.3101L15.182 21.1901C17.372 21.1501 18.732 20.7101 19.462 19.8201C20.112 19.0301 20.372 17.7801 20.322 15.6601L20.202 9.49005C20.102 5.13005 18.642 4.27005 15.802 4.17005Z" fill="#3B5E88"/>
</svg>
