<svg width="12" height="12" viewBox="0 0 12 12" fill="none" xmlns="http://www.w3.org/2000/svg">
<path d="M2.76999 9.75978C2.46499 9.75978 2.17999 9.65478 1.97499 9.45978C1.71499 9.21478 1.58999 8.84478 1.63499 8.44478L1.81999 6.82478C1.85499 6.51978 2.03999 6.11478 2.25499 5.89478L6.35999 1.54978C7.38499 0.46478 8.45499 0.43478 9.53999 1.45978C10.625 2.48478 10.655 3.55478 9.62999 4.63978L5.52499 8.98478C5.31499 9.20978 4.92499 9.41978 4.61999 9.46978L3.00999 9.74478C2.92499 9.74978 2.84999 9.75978 2.76999 9.75978ZM7.96499 1.45478C7.57999 1.45478 7.24499 1.69478 6.90499 2.05478L2.79999 6.40478C2.69999 6.50978 2.58499 6.75978 2.56499 6.90478L2.37999 8.52478C2.35999 8.68978 2.39999 8.82478 2.48999 8.90978C2.57999 8.99478 2.71499 9.02478 2.87999 8.99978L4.48999 8.72478C4.63499 8.69978 4.87499 8.56978 4.97499 8.46478L9.07999 4.11978C9.69999 3.45978 9.92499 2.84978 9.01999 1.99978C8.61999 1.61478 8.27499 1.45478 7.96499 1.45478Z" fill="#212121"/>
<path d="M8.67022 5.47541C8.66022 5.47541 8.64522 5.47541 8.63522 5.47541C7.07522 5.32041 5.82022 4.13541 5.58022 2.58541C5.55022 2.38041 5.69022 2.19041 5.89522 2.15541C6.10022 2.12541 6.29022 2.26541 6.32522 2.47041C6.51522 3.68041 7.49522 4.61041 8.71522 4.73041C8.92022 4.75041 9.07022 4.93541 9.05022 5.14041C9.02522 5.33041 8.86022 5.47541 8.67022 5.47541Z" fill="#212121"/>
<path d="M10.5 11.375H1.5C1.295 11.375 1.125 11.205 1.125 11C1.125 10.795 1.295 10.625 1.5 10.625H10.5C10.705 10.625 10.875 10.795 10.875 11C10.875 11.205 10.705 11.375 10.5 11.375Z" fill="#212121"/>
</svg>
