<svg width="20" height="21" viewBox="0 0 20 21" fill="none" xmlns="http://www.w3.org/2000/svg">
<path d="M13.3307 10.7017H6.66406C6.3224 10.7017 6.03906 10.4176 6.03906 10.075C6.03906 9.73236 6.3224 9.44824 6.66406 9.44824H13.3307C13.6724 9.44824 13.9557 9.73236 13.9557 10.075C13.9557 10.4176 13.6724 10.7017 13.3307 10.7017Z" fill="#F5F7FA"/>
<path d="M10 14.0446C9.65833 14.0446 9.375 13.7605 9.375 13.4179V6.7327C9.375 6.39008 9.65833 6.10596 10 6.10596C10.3417 6.10596 10.625 6.39008 10.625 6.7327V13.4179C10.625 13.7605 10.3417 14.0446 10 14.0446Z" fill="#F5F7FA"/>
<path d="M12.4974 19.0588H7.4974C2.9724 19.0588 1.03906 17.1201 1.03906 12.5825V7.56858C1.03906 3.031 2.9724 1.09229 7.4974 1.09229H12.4974C17.0224 1.09229 18.9557 3.031 18.9557 7.56858V12.5825C18.9557 17.1201 17.0224 19.0588 12.4974 19.0588ZM7.4974 2.34576C3.65573 2.34576 2.28906 3.71623 2.28906 7.56858V12.5825C2.28906 16.4348 3.65573 17.8053 7.4974 17.8053H12.4974C16.3391 17.8053 17.7057 16.4348 17.7057 12.5825V7.56858C17.7057 3.71623 16.3391 2.34576 12.4974 2.34576H7.4974Z" fill="#F5F7FA"/>
</svg>
