<svg width="8" height="9" viewBox="0 0 8 9" fill="none" xmlns="http://www.w3.org/2000/svg">
    <path
        d="M6.21561 8.08893L6.12452 8.00263H6.25C7.18997 8.00263 7.95 7.27882 7.95 6.39474V1.89474C7.95 1.49124 7.82867 1.17737 7.61828 0.931789C7.40706 0.68524 7.10321 0.504203 6.73326 0.372773C5.99213 0.109475 4.99984 0.05 4 0.05C2.89464 0.05 1.90294 0.109568 1.18852 0.372579C0.832228 0.503749 0.548317 0.684348 0.353406 0.930313C0.159042 1.17559 0.0500002 1.48986 0.0500002 1.89474V6.39474C0.0500002 7.27882 0.810032 8.00263 1.75 8.00263H1.87548L1.78439 8.08893L1.05 8.78466V8.95H1.98008L2.96561 8.01633L2.98008 8.00263H3H4.885H4.90492L4.91939 8.01633L5.90492 8.95H6.95V8.78467L6.21561 8.08893ZM4.5 3.83947H4.45V3.78947V1.89474V1.84474H4.5H7H7.05V1.89474V3.78947V3.83947H7H4.5ZM3.55 3.78947V3.83947H3.5H1H0.95V3.78947V1.89474V1.84474H1H3.5H3.55V1.89474V3.78947ZM7.05 6.39474C7.05 6.81802 6.69003 7.15526 6.25 7.15526C5.80997 7.15526 5.45 6.81802 5.45 6.39474C5.45 5.97145 5.80997 5.63421 6.25 5.63421C6.69003 5.63421 7.05 5.97145 7.05 6.39474ZM2.55 6.39474C2.55 6.81802 2.19003 7.15526 1.75 7.15526C1.30997 7.15526 0.95 6.81802 0.95 6.39474C0.95 5.97145 1.30997 5.63421 1.75 5.63421C2.19003 5.63421 2.55 5.97145 2.55 6.39474Z"
        fill="#C43025" stroke="#8D0A01" strokeWidth="0.1" />
</svg>