<svg width="16" height="16" viewBox="0 0 16 16" fill="none" xmlns="http://www.w3.org/2000/svg">
<path d="M14.0002 13.5H7.3335C7.06016 13.5 6.8335 13.2733 6.8335 13C6.8335 12.7267 7.06016 12.5 7.3335 12.5H14.0002C14.2735 12.5 14.5002 12.7267 14.5002 13C14.5002 13.2733 14.2735 13.5 14.0002 13.5Z" fill="#3B5E88"/>
<path d="M14.0002 8.8335H7.3335C7.06016 8.8335 6.8335 8.60683 6.8335 8.3335C6.8335 8.06016 7.06016 7.8335 7.3335 7.8335H14.0002C14.2735 7.8335 14.5002 8.06016 14.5002 8.3335C14.5002 8.60683 14.2735 8.8335 14.0002 8.8335Z" fill="#3B5E88"/>
<path d="M14.0002 4.1665H7.3335C7.06016 4.1665 6.8335 3.93984 6.8335 3.6665C6.8335 3.39317 7.06016 3.1665 7.3335 3.1665H14.0002C14.2735 3.1665 14.5002 3.39317 14.5002 3.6665C14.5002 3.93984 14.2735 4.1665 14.0002 4.1665Z" fill="#3B5E88"/>
<path d="M2.66646 4.83329C2.5398 4.83329 2.41313 4.78663 2.31313 4.68663L1.64646 4.01996C1.45313 3.82663 1.45313 3.50663 1.64646 3.31329C1.8398 3.11996 2.1598 3.11996 2.35313 3.31329L2.66646 3.62663L4.31313 1.97996C4.50646 1.78663 4.82647 1.78663 5.0198 1.97996C5.21313 2.17329 5.21313 2.49329 5.0198 2.68663L3.0198 4.68663C2.9198 4.78663 2.79313 4.83329 2.66646 4.83329Z" fill="#3B5E88"/>
<path d="M2.66646 9.4998C2.5398 9.4998 2.41313 9.45313 2.31313 9.35313L1.64646 8.68646C1.45313 8.49313 1.45313 8.17313 1.64646 7.9798C1.8398 7.78646 2.1598 7.78646 2.35313 7.9798L2.66646 8.29313L4.31313 6.64646C4.50646 6.45313 4.82647 6.45313 5.0198 6.64646C5.21313 6.8398 5.21313 7.1598 5.0198 7.35313L3.0198 9.35313C2.9198 9.45313 2.79313 9.4998 2.66646 9.4998Z" fill="#3B5E88"/>
<path d="M2.66646 14.1668C2.5398 14.1668 2.41313 14.1201 2.31313 14.0201L1.64646 13.3535C1.45313 13.1601 1.45313 12.8401 1.64646 12.6468C1.8398 12.4535 2.1598 12.4535 2.35313 12.6468L2.66646 12.9601L4.31313 11.3135C4.50646 11.1201 4.82647 11.1201 5.0198 11.3135C5.21313 11.5068 5.21313 11.8268 5.0198 12.0201L3.0198 14.0201C2.9198 14.1201 2.79313 14.1668 2.66646 14.1668Z" fill="#3B5E88"/>
</svg>
