<svg width="25" height="24" viewBox="0 0 25 24" fill="none" xmlns="http://www.w3.org/2000/svg">
    <path
        d="M5.07337 8C5.81106 6.72229 6.88772 5.67345 8.18431 4.96946C9.4809 4.26547 10.9469 3.93375 12.4203 4.01097C13.8936 4.08818 15.3169 4.57133 16.5328 5.40699C17.7487 6.24266 18.7098 7.39828 19.3099 8.74611M3.2334 5.51537L3.96281 8.6749C4.08704 9.21303 4.624 9.54856 5.16213 9.42433L8.32166 8.69492M18.9298 15.9999C18.1921 17.2776 17.1155 18.3264 15.8189 19.0304C14.5223 19.7344 13.0563 20.0661 11.5829 19.9889C10.1096 19.9117 8.68627 19.4286 7.47037 18.5929C6.25447 17.7572 5.29334 16.6016 4.69325 15.2538M20.7698 18.4845L20.0404 15.325C19.9162 14.7869 19.3792 14.4513 18.8411 14.5756L15.6815 15.305"
        stroke="#3B5E88" strokeWidth="1.5" strokeLinecap="round" />
</svg>