<svg width="23" height="23" viewBox="0 0 23 23" fill="none" xmlns="http://www.w3.org/2000/svg">
    <path d="M20.125 6.44958C20.1058 6.44958 20.0771 6.44958 20.0483 6.44958C14.9788 5.94166 9.91876 5.75 4.90668 6.25791L2.95168 6.44958C2.54918 6.48791 2.19459 6.20041 2.15626 5.79791C2.11793 5.39541 2.40543 5.05041 2.79834 5.01208L4.75334 4.82041C9.85168 4.30291 15.0171 4.50416 20.1921 5.01208C20.585 5.05041 20.8725 5.405 20.8342 5.79791C20.8054 6.17166 20.4892 6.44958 20.125 6.44958Z" fill="#4D4D4D"/>
    <path d="M8.14573 5.48163C8.1074 5.48163 8.06906 5.48163 8.02115 5.47204C7.63781 5.40496 7.36948 5.03121 7.43656 4.64788L7.6474 3.39246C7.80073 2.47246 8.01156 1.19788 10.2445 1.19788H12.7553C14.9978 1.19788 15.2086 2.52038 15.3524 3.40204L15.5632 4.64788C15.6303 5.04079 15.362 5.41454 14.9786 5.47204C14.5857 5.53913 14.212 5.27079 14.1545 4.88746L13.9436 3.64163C13.8095 2.80788 13.7807 2.64496 12.7649 2.64496H10.2541C9.23823 2.64496 9.21906 2.77913 9.07531 3.63204L8.8549 4.87788C8.7974 5.23246 8.49073 5.48163 8.14573 5.48163Z" fill="#4D4D4D"/>
    <path d="M14.5763 21.8021H8.4238C5.07921 21.8021 4.94505 19.9525 4.83963 18.4575L4.21671 8.80709C4.18796 8.41418 4.49463 8.06918 4.88755 8.04043C5.29005 8.02126 5.62546 8.31834 5.65421 8.71126L6.27713 18.3617C6.38255 19.8183 6.42088 20.3646 8.4238 20.3646H14.5763C16.5888 20.3646 16.6271 19.8183 16.723 18.3617L17.3459 8.71126C17.3746 8.31834 17.7196 8.02126 18.1125 8.04043C18.5055 8.06918 18.8121 8.40459 18.7834 8.80709L18.1605 18.4575C18.055 19.9525 17.9209 21.8021 14.5763 21.8021Z" fill="#4D4D4D"/>
    <path d="M13.0907 16.5312H9.89941C9.5065 16.5312 9.18066 16.2054 9.18066 15.8125C9.18066 15.4196 9.5065 15.0938 9.89941 15.0938H13.0907C13.4836 15.0938 13.8094 15.4196 13.8094 15.8125C13.8094 16.2054 13.4836 16.5312 13.0907 16.5312Z" fill="#4D4D4D"/>
    <path d="M13.8957 12.6979H9.104C8.71109 12.6979 8.38525 12.372 8.38525 11.9791C8.38525 11.5862 8.71109 11.2604 9.104 11.2604H13.8957C14.2886 11.2604 14.6144 11.5862 14.6144 11.9791C14.6144 12.372 14.2886 12.6979 13.8957 12.6979Z" fill="#4D4D4D"/>
</svg>
    