<svg width="33" height="32" viewBox="0 0 33 32" fill="none" xmlns="http://www.w3.org/2000/svg">
    <path
        d="M9.5724 12C10.3101 10.7223 11.3867 9.67345 12.6833 8.96946C13.9799 8.26547 15.4459 7.93375 16.9193 8.01097C18.3926 8.08818 19.816 8.57133 21.0319 9.40699C22.2477 10.2427 23.2089 11.3983 23.809 12.7461M7.73242 9.51537L8.46183 12.6749C8.58607 13.213 9.12302 13.5486 9.66115 13.4243L12.8207 12.6949M23.4288 19.9999C22.6912 21.2776 21.6145 22.3264 20.3179 23.0304C19.0213 23.7344 17.5553 24.0661 16.082 23.9889C14.6086 23.9117 13.1853 23.4286 11.9694 22.5929C10.7535 21.7572 9.79237 20.6016 9.19228 19.2538M25.2688 22.4845L24.5394 19.325C24.4152 18.7869 23.8782 18.4513 23.3401 18.5756L20.1806 19.305"
        stroke="white" strokeWidth="1.5" strokeLinecap="round" />
</svg>