<svg width="17" height="16" viewBox="0 0 17 16" fill="none" xmlns="http://www.w3.org/2000/svg">
<path d="M12.0198 7.46617C11.8932 7.46617 11.7665 7.41948 11.6665 7.31948C11.4732 7.12615 11.4732 6.80615 11.6665 6.61281L13.7932 4.48615L11.6665 2.35948C11.4732 2.16614 11.4732 1.84615 11.6665 1.65281C11.8598 1.45948 12.1798 1.45948 12.3731 1.65281L14.8532 4.13283C14.9465 4.22617 14.9998 4.35281 14.9998 4.48615C14.9998 4.61948 14.9465 4.74617 14.8532 4.8395L12.3731 7.31948C12.2731 7.41281 12.1465 7.46617 12.0198 7.46617Z" fill="white"/>
<path d="M14.5 4.98633H2.5C2.22667 4.98633 2 4.75966 2 4.48633C2 4.21299 2.22667 3.98633 2.5 3.98633H14.5C14.7733 3.98633 15 4.21299 15 4.48633C15 4.75966 14.7733 4.98633 14.5 4.98633Z" fill="white"/>
<path d="M4.97998 14.5003C4.85331 14.5003 4.72667 14.4537 4.62667 14.3537L2.14665 11.8736C2.05331 11.7803 2 11.6537 2 11.5203C2 11.387 2.05331 11.2603 2.14665 11.167L4.62667 8.68699C4.82 8.49366 5.14 8.49366 5.33333 8.68699C5.52667 8.88033 5.52667 9.20032 5.33333 9.39366L3.20667 11.5203L5.33333 13.647C5.52667 13.8403 5.52667 14.1603 5.33333 14.3537C5.24 14.4537 5.11331 14.5003 4.97998 14.5003Z" fill="white"/>
<path d="M14.5 12.0137H2.5C2.22667 12.0137 2 11.787 2 11.5137C2 11.2403 2.22667 11.0137 2.5 11.0137H14.5C14.7733 11.0137 15 11.2403 15 11.5137C15 11.787 14.7733 12.0137 14.5 12.0137Z" fill="white"/>
</svg>
