<svg width="17" height="16" viewBox="0 0 17 16" fill="none" xmlns="http://www.w3.org/2000/svg">
<path d="M8.16536 14.5002C4.3987 14.5002 1.33203 11.4335 1.33203 7.66683C1.33203 3.90016 4.3987 0.833496 8.16536 0.833496C11.932 0.833496 14.9987 3.90016 14.9987 7.66683C14.9987 11.4335 11.932 14.5002 8.16536 14.5002ZM8.16536 1.8335C4.94536 1.8335 2.33203 4.4535 2.33203 7.66683C2.33203 10.8802 4.94536 13.5002 8.16536 13.5002C11.3854 13.5002 13.9987 10.8802 13.9987 7.66683C13.9987 4.4535 11.3854 1.8335 8.16536 1.8335Z" fill="white"/>
<path d="M15.1676 15.1666C15.0409 15.1666 14.9143 15.12 14.8143 15.02L13.4809 13.6866C13.2876 13.4933 13.2876 13.1733 13.4809 12.98C13.6743 12.7866 13.9943 12.7866 14.1876 12.98L15.5209 14.3133C15.7143 14.5066 15.7143 14.8266 15.5209 15.02C15.4209 15.12 15.2943 15.1666 15.1676 15.1666Z" fill="white"/>
</svg>
