<svg width="19" height="20" viewBox="0 0 19 20" fill="none" xmlns="http://www.w3.org/2000/svg">
<path fill-rule="evenodd" clip-rule="evenodd" d="M7.12565 3.16552C7.12565 2.72916 7.47939 2.37543 7.91574 2.37543H11.0856C11.5219 2.37543 11.8757 2.72916 11.8757 3.16552C11.8757 3.60188 11.5219 3.95561 11.0856 3.95561H10.6882V4.84995C11.7025 5.0302 12.6383 5.43728 13.4408 6.01676L14.4168 5.04276C14.6122 4.84769 14.9291 4.84769 15.1246 5.04276L15.5363 5.45371C15.7318 5.64878 15.7318 5.96505 15.5363 6.16012L14.6071 7.08754C15.6186 8.26264 16.2298 9.79083 16.2298 11.4615C16.2298 15.1705 13.2171 18.1773 9.50065 18.1773C5.78423 18.1773 2.77148 15.1705 2.77148 11.4615C2.77148 9.79083 3.38274 8.26264 4.39423 7.08754L3.46581 6.16096C3.27035 5.96589 3.27035 5.64963 3.46581 5.45456L3.87758 5.0436C4.07304 4.84853 4.38994 4.84853 4.58539 5.0436L5.56049 6.01676C6.36304 5.43728 7.29877 5.0302 8.31315 4.84995V3.95561H7.91574C7.47939 3.95561 7.12565 3.60188 7.12565 3.16552ZM8.94648 17.203V15.9661C8.94648 15.6601 9.19459 15.412 9.50065 15.412C9.80671 15.412 10.0548 15.6601 10.0548 15.9661V17.203C12.8042 16.942 14.992 14.7585 15.2536 12.0146H14.012C13.7066 12.0146 13.459 11.7669 13.459 11.4615C13.459 11.156 13.7066 10.9084 14.012 10.9084H15.2536C14.992 8.16451 12.8042 5.98104 10.0548 5.71999V6.95686C10.0548 7.26292 9.80671 7.51103 9.50065 7.51103C9.19459 7.51103 8.94648 7.26292 8.94648 6.95686V5.71999C6.19709 5.98104 4.00928 8.16451 3.74771 10.9084H4.98925C5.2947 10.9084 5.54232 11.156 5.54232 11.4615C5.54232 11.7669 5.2947 12.0146 4.98925 12.0146H3.74771C4.00928 14.7585 6.19709 16.942 8.94648 17.203ZM6.5394 10.0036C6.33851 9.83538 6.31235 9.53641 6.48098 9.33585C6.6496 9.13529 6.94915 9.10908 7.15004 9.27731L9.45665 11.2089L12.3932 7.71629C12.5619 7.51566 12.8615 7.48944 13.0625 7.65773C13.2634 7.82602 13.2896 8.12509 13.1209 8.32572L9.86423 12.1992L9.86227 12.1975L9.57178 12.543L6.5394 10.0036Z" fill="white"/>
</svg>
