<svg width="21" height="20" viewBox="0 0 21 20" fill="none" xmlns="http://www.w3.org/2000/svg">
<path d="M12.5018 18.9584H7.50179C2.97679 18.9584 1.04346 17.0251 1.04346 12.5001V7.50008C1.04346 2.97508 2.97679 1.04175 7.50179 1.04175H11.6685C12.0101 1.04175 12.2935 1.32508 12.2935 1.66675C12.2935 2.00841 12.0101 2.29175 11.6685 2.29175H7.50179C3.66012 2.29175 2.29346 3.65841 2.29346 7.50008V12.5001C2.29346 16.3417 3.66012 17.7084 7.50179 17.7084H12.5018C16.3435 17.7084 17.7101 16.3417 17.7101 12.5001V8.33342C17.7101 7.99175 17.9935 7.70842 18.3351 7.70842C18.6768 7.70842 18.9601 7.99175 18.9601 8.33342V12.5001C18.9601 17.0251 17.0268 18.9584 12.5018 18.9584Z" fill="#3B5E88"/>
<path d="M18.3351 8.9584H15.0018C12.1518 8.9584 11.0435 7.85007 11.0435 5.00007V1.66674C11.0435 1.41674 11.1935 1.18341 11.4268 1.09174C11.6601 0.991739 11.9268 1.05007 12.1101 1.22507L18.7768 7.89174C18.9518 8.06674 19.0101 8.34174 18.9101 8.57507C18.8101 8.8084 18.5851 8.9584 18.3351 8.9584ZM12.2935 3.17507V5.00007C12.2935 7.15007 12.8518 7.70841 15.0018 7.70841H16.8268L12.2935 3.17507Z" fill="#3B5E88"/>
<path d="M10.8354 11.4583H5.83545C5.49378 11.4583 5.21045 11.1749 5.21045 10.8333C5.21045 10.4916 5.49378 10.2083 5.83545 10.2083H10.8354C11.1771 10.2083 11.4604 10.4916 11.4604 10.8333C11.4604 11.1749 11.1771 11.4583 10.8354 11.4583Z" fill="#3B5E88"/>
<path d="M9.16878 14.7917H5.83545C5.49378 14.7917 5.21045 14.5084 5.21045 14.1667C5.21045 13.8251 5.49378 13.5417 5.83545 13.5417H9.16878C9.51045 13.5417 9.79378 13.8251 9.79378 14.1667C9.79378 14.5084 9.51045 14.7917 9.16878 14.7917Z" fill="#3B5E88"/>
</svg>
