<svg width="12" height="13" viewBox="0 0 12 13" fill="none" xmlns="http://www.w3.org/2000/svg">
<path d="M5.99967 0.333496C8.66634 0.333496 11.333 0.649286 11.333 2.85981V8.85981C11.333 10.0788 10.2863 11.0703 8.99967 11.0703L9.99967 12.0177V12.3335H8.51301L7.17967 11.0703H4.66634L3.33301 12.3335H1.99967V12.0177L2.99967 11.0703C1.71301 11.0703 0.666341 10.0788 0.666341 8.85981V2.85981C0.666341 0.649286 3.05301 0.333496 5.99967 0.333496ZM8.99967 9.80718C9.55301 9.80718 9.99967 9.38402 9.99967 8.85981C9.99967 8.3356 9.55301 7.91244 8.99967 7.91244C8.44634 7.91244 7.99967 8.3356 7.99967 8.85981C7.99967 9.38402 8.44634 9.80718 8.99967 9.80718ZM6.66634 5.38613H9.99967V2.85981H6.66634V5.38613ZM5.33301 5.38613V2.85981H1.99967V5.38613H5.33301ZM2.99967 9.80718C3.55301 9.80718 3.99967 9.38402 3.99967 8.85981C3.99967 8.3356 3.55301 7.91244 2.99967 7.91244C2.44634 7.91244 1.99967 8.3356 1.99967 8.85981C1.99967 9.38402 2.44634 9.80718 2.99967 9.80718Z" fill="#4D4D4D"/>
</svg>
