<svg width="10" height="12" viewBox="0 0 10 12" fill="none" xmlns="http://www.w3.org/2000/svg">
<path d="M4.95918 0C2.48057 0 0.00195312 0.315789 0.00195312 2.52632V8.52632C0.00195312 9.74526 0.97481 10.7368 2.17074 10.7368L1.24126 11.6842V12H2.62309L3.8624 10.7368H6.19849L7.4378 12H8.67711V11.6842L7.74763 10.7368C8.94356 10.7368 9.91642 9.74526 9.91642 8.52632V2.52632C9.91642 0.315789 7.69806 0 4.95918 0ZM2.17074 9.47368C1.65643 9.47368 1.24126 9.05053 1.24126 8.52632C1.24126 8.0021 1.65643 7.57895 2.17074 7.57895C2.68505 7.57895 3.10022 8.0021 3.10022 8.52632C3.10022 9.05053 2.68505 9.47368 2.17074 9.47368ZM4.33953 5.05263H1.24126V2.52632H4.33953V5.05263ZM5.57884 5.05263V2.52632H8.67711V5.05263H5.57884ZM7.74763 9.47368C7.23331 9.47368 6.81815 9.05053 6.81815 8.52632C6.81815 8.0021 7.23331 7.57895 7.74763 7.57895C8.26194 7.57895 8.67711 8.0021 8.67711 8.52632C8.67711 9.05053 8.26194 9.47368 7.74763 9.47368Z" fill="#C43025"/>
</svg>
