<svg width="18" height="18" viewBox="0 0 18 18" fill="none" xmlns="http://www.w3.org/2000/svg">
    <path d="M11.4449 16.6875H6.55486C2.87236 16.6875 1.29736 15.1125 1.29736 11.43V11.3325C1.29736 8.00246 2.60986 6.39746 5.54986 6.11996C5.84986 6.09746 6.13486 6.32246 6.16486 6.62996C6.19486 6.93746 5.96986 7.21496 5.65486 7.24496C3.29986 7.46246 2.42236 8.57246 2.42236 11.34V11.4375C2.42236 14.49 3.50236 15.57 6.55486 15.57H11.4449C14.4974 15.57 15.5774 14.49 15.5774 11.4375V11.34C15.5774 8.55746 14.6849 7.44746 12.2849 7.24496C11.9774 7.21496 11.7449 6.94496 11.7749 6.63746C11.8049 6.32996 12.0674 6.09746 12.3824 6.12746C15.3674 6.38246 16.7024 7.99496 16.7024 11.3475V11.445C16.7024 15.1125 15.1274 16.6875 11.4449 16.6875Z" fill="#3B5E88" />
    <path d="M9 11.7225C8.6925 11.7225 8.4375 11.4675 8.4375 11.16V1.5C8.4375 1.1925 8.6925 0.9375 9 0.9375C9.3075 0.9375 9.5625 1.1925 9.5625 1.5V11.16C9.5625 11.475 9.3075 11.7225 9 11.7225Z" fill="#3B5E88" />
    <path d="M8.99988 12.5625C8.85738 12.5625 8.71488 12.51 8.60238 12.3975L6.08988 9.88501C5.87238 9.66751 5.87238 9.3075 6.08988 9.09C6.30738 8.8725 6.66738 8.8725 6.88488 9.09L8.99988 11.205L11.1149 9.09C11.3324 8.8725 11.6924 8.8725 11.9099 9.09C12.1274 9.3075 12.1274 9.66751 11.9099 9.88501L9.39738 12.3975C9.28488 12.51 9.14238 12.5625 8.99988 12.5625Z" fill="#3B5E88" />
</svg>
    