<svg width="25" height="24" viewBox="0 0 25 24" fill="none" xmlns="http://www.w3.org/2000/svg">
    <path d="M12.002 22.75C6.07195 22.75 1.25195 17.93 1.25195 12C1.25195 6.07 6.07195 1.25 12.002 1.25C17.932 1.25 22.752 6.07 22.752 12C22.752 17.93 17.932 22.75 12.002 22.75ZM12.002 2.75C6.90195 2.75 2.75195 6.9 2.75195 12C2.75195 17.1 6.90195 21.25 12.002 21.25C17.102 21.25 21.252 17.1 21.252 12C21.252 6.9 17.102 2.75 12.002 2.75Z" fill="#F0857D"/>
    <path d="M12.002 13.75C11.592 13.75 11.252 13.41 11.252 13V8C11.252 7.59 11.592 7.25 12.002 7.25C12.412 7.25 12.752 7.59 12.752 8V13C12.752 13.41 12.412 13.75 12.002 13.75Z" fill="#F0857D"/>
    <path d="M12.002 16.9999C11.872 16.9999 11.742 16.9699 11.622 16.9199C11.502 16.8699 11.392 16.7999 11.292 16.7099C11.202 16.6099 11.132 16.5099 11.082 16.3799C11.032 16.2599 11.002 16.1299 11.002 15.9999C11.002 15.8699 11.032 15.7399 11.082 15.6199C11.132 15.4999 11.202 15.3899 11.292 15.2899C11.392 15.1999 11.502 15.1299 11.622 15.0799C11.862 14.9799 12.142 14.9799 12.382 15.0799C12.502 15.1299 12.612 15.1999 12.712 15.2899C12.802 15.3899 12.872 15.4999 12.922 15.6199C12.972 15.7399 13.002 15.8699 13.002 15.9999C13.002 16.1299 12.972 16.2599 12.922 16.3799C12.872 16.5099 12.802 16.6099 12.712 16.7099C12.612 16.7999 12.502 16.8699 12.382 16.9199C12.262 16.9699 12.132 16.9999 12.002 16.9999Z" fill="#F0857D"/>
</svg>
    