<svg width="21" height="20" viewBox="0 0 21 20" fill="none" xmlns="http://www.w3.org/2000/svg">
<path d="M12.5018 18.9582H7.50179C2.97679 18.9582 1.04346 17.0248 1.04346 12.4998V7.49984C1.04346 2.97484 2.97679 1.0415 7.50179 1.0415H11.6685C12.0101 1.0415 12.2935 1.32484 12.2935 1.6665C12.2935 2.00817 12.0101 2.2915 11.6685 2.2915H7.50179C3.66012 2.2915 2.29346 3.65817 2.29346 7.49984V12.4998C2.29346 16.3415 3.66012 17.7082 7.50179 17.7082H12.5018C16.3435 17.7082 17.7101 16.3415 17.7101 12.4998V8.33317C17.7101 7.9915 17.9935 7.70817 18.3351 7.70817C18.6768 7.70817 18.9601 7.9915 18.9601 8.33317V12.4998C18.9601 17.0248 17.0268 18.9582 12.5018 18.9582Z" fill="white"/>
<path d="M18.3351 8.95841H15.0018C12.1518 8.95841 11.0435 7.85007 11.0435 5.00007V1.66674C11.0435 1.41674 11.1935 1.18341 11.4268 1.09174C11.6601 0.991739 11.9268 1.05007 12.1101 1.22507L18.7768 7.89174C18.9518 8.06674 19.0101 8.34174 18.9101 8.57507C18.8101 8.8084 18.5851 8.95841 18.3351 8.95841ZM12.2935 3.17507V5.00007C12.2935 7.15007 12.8518 7.70841 15.0018 7.70841H16.8268L12.2935 3.17507Z" fill="white"/>
<path d="M10.8354 11.4585H5.83545C5.49378 11.4585 5.21045 11.1752 5.21045 10.8335C5.21045 10.4918 5.49378 10.2085 5.83545 10.2085H10.8354C11.1771 10.2085 11.4604 10.4918 11.4604 10.8335C11.4604 11.1752 11.1771 11.4585 10.8354 11.4585Z" fill="white"/>
<path d="M9.16878 14.7915H5.83545C5.49378 14.7915 5.21045 14.5082 5.21045 14.1665C5.21045 13.8248 5.49378 13.5415 5.83545 13.5415H9.16878C9.51045 13.5415 9.79378 13.8248 9.79378 14.1665C9.79378 14.5082 9.51045 14.7915 9.16878 14.7915Z" fill="white"/>
</svg>
